<svg width="28" height="28" viewBox="0 0 28 28" fill="none" xmlns="http://www.w3.org/2000/svg">
<rect width="28" height="28" rx="14" fill="white" fill-opacity="0.1"/>
<path d="M16.16 7.33203H13.564C12.388 7.33203 11.456 7.33203 10.727 7.43103C9.977 7.53203 9.369 7.74503 8.891 8.22603C8.411 8.70603 8.199 9.31603 8.098 10.07C8 10.802 8 11.737 8 12.918V16.81C7.99949 17.2866 8.1403 17.7527 8.40462 18.1492C8.66894 18.5458 9.04491 18.8551 9.485 19.038C9.44 18.431 9.44 17.581 9.44 16.873V13.533C9.44 12.679 9.44 11.943 9.519 11.353C9.603 10.721 9.794 10.116 10.283 9.62503C10.773 9.13303 11.376 8.94203 12.005 8.85703C12.592 8.77803 13.325 8.77803 14.177 8.77803H16.223C17.074 8.77803 17.806 8.77803 18.393 8.85703C18.2171 8.40788 17.91 8.02215 17.5117 7.75012C17.1134 7.47809 16.6423 7.3324 16.16 7.33203Z" fill="white" fill-opacity="0.64"/>
<path d="M10.4004 13.5982C10.4004 11.7802 10.4004 10.8722 10.9634 10.3072C11.5254 9.74219 12.4294 9.74219 14.2404 9.74219H16.1604C17.9704 9.74219 18.8754 9.74219 19.4384 10.3072C20.0014 10.8722 20.0004 11.7802 20.0004 13.5972V16.8112C20.0004 18.6282 20.0004 19.5372 19.4384 20.1012C18.8754 20.6662 17.9704 20.6662 16.1604 20.6662H14.2404C12.4304 20.6662 11.5254 20.6662 10.9634 20.1022C10.4004 19.5372 10.4004 18.6282 10.4004 16.8112V13.5982Z" fill="white" fill-opacity="0.64"/>
</svg>
