<svg width="43" height="43" viewBox="0 0 43 43" fill="none" xmlns="http://www.w3.org/2000/svg">
<mask id="mask0_504_39410" style="mask-type:alpha" maskUnits="userSpaceOnUse" x="0" y="0" width="43" height="43">
<rect width="42.3994" height="42.3994" fill="#D9D9D9"/>
</mask>
<g mask="url(#mask0_504_39410)">
<path d="M21.1995 39.7494C20.8168 39.7494 20.4487 39.6905 20.0954 39.5727C19.7421 39.4549 19.4035 39.2783 19.0796 39.0427L8.47972 31.0928C8.03806 30.7689 7.69209 30.3567 7.44182 29.8562C7.19154 29.3556 7.06641 28.8256 7.06641 28.2662V7.06649C7.06641 6.09483 7.41237 5.26304 8.10431 4.57111C8.79624 3.87917 9.62804 3.5332 10.5997 3.5332H31.7994C32.771 3.5332 33.6028 3.87917 34.2948 4.57111C34.9867 5.26304 35.3327 6.09483 35.3327 7.06649V28.2662C35.3327 28.8256 35.2075 29.3556 34.9573 29.8562C34.707 30.3567 34.361 30.7689 33.9194 31.0928L23.3195 39.0427C22.9956 39.2783 22.657 39.4549 22.3037 39.5727C21.9504 39.6905 21.5823 39.7494 21.1995 39.7494ZM19.3446 21.4646L16.8713 18.9913C16.5179 18.638 16.1057 18.4687 15.6346 18.4834C15.1635 18.4981 14.7513 18.6674 14.398 18.9913C14.0446 19.3447 13.8606 19.7642 13.8459 20.2501C13.8312 20.7359 14.0005 21.1555 14.3538 21.5088L18.1079 25.2629C18.4612 25.6162 18.8735 25.7929 19.3446 25.7929C19.8157 25.7929 20.2279 25.6162 20.5812 25.2629L28.0894 17.7547C28.4428 17.4013 28.6121 16.9891 28.5974 16.518C28.5826 16.0469 28.4133 15.6347 28.0894 15.2814C27.7361 14.928 27.3165 14.744 26.8307 14.7293C26.3449 14.7146 25.9253 14.8839 25.572 15.2372L19.3446 21.4646Z" fill="#2870FF"/>
</g>
</svg>
