<svg width="34" height="15" viewBox="0 0 34 15" fill="none" xmlns="http://www.w3.org/2000/svg">
<path d="M24.8936 2.24414V7.21289C25.4 5.57529 26.9265 4.38574 28.7305 4.38574C30.9479 4.38585 32.745 6.183 32.7451 8.40039C32.7451 10.6179 30.9479 12.4159 28.7305 12.416C26.8699 12.416 25.3042 11.1499 24.8486 9.43262C24.393 11.1499 22.8284 12.416 20.9678 12.416C19.0755 12.416 17.4891 11.1066 17.0645 9.34473C16.6398 11.1067 15.0525 12.416 13.1602 12.416C11.4063 12.4159 9.91497 11.2911 9.36816 9.72363V11.791H7.58398V9.11426C7.58394 7.63602 6.38544 6.43763 4.90723 6.4375C3.4289 6.4375 2.23052 7.63594 2.23047 9.11426V11.791H0.445312V9.11426C0.44536 6.65037 2.44333 4.65332 4.90723 4.65332C6.92851 4.65343 8.6355 5.99751 9.18359 7.84082C9.4559 5.88831 11.1327 4.38589 13.1602 4.38574C15.0526 4.38574 16.64 5.69485 17.0645 7.45703C17.4889 5.69486 19.0753 4.38575 20.9678 4.38574C21.755 4.38574 22.4896 4.61146 23.1094 5.00293V2.24414H24.8936ZM13.1602 6.16992C11.9284 6.17011 10.9298 7.16861 10.9297 8.40039C10.9297 9.63224 11.9284 10.6307 13.1602 10.6309C14.3921 10.6309 15.3916 9.63235 15.3916 8.40039C15.3915 7.16849 14.3921 6.16992 13.1602 6.16992ZM20.9678 6.16992C19.7359 6.16996 18.7374 7.16852 18.7373 8.40039C18.7373 9.63233 19.7358 10.6308 20.9678 10.6309C22.1997 10.6309 23.1982 9.63235 23.1982 8.40039C23.1982 7.16849 22.1997 6.16992 20.9678 6.16992ZM28.7305 6.16992C27.4986 6.16992 26.5001 7.1685 26.5 8.40039C26.5 9.63235 27.4985 10.6309 28.7305 10.6309C29.9623 10.6307 30.9609 9.63229 30.9609 8.40039C30.9609 7.16857 29.9623 6.17003 28.7305 6.16992Z" fill="url(#paint0_linear_507_16378)"/>
<defs>
<linearGradient id="paint0_linear_507_16378" x1="0.445312" y1="7.33008" x2="32.7451" y2="7.33008" gradientUnits="userSpaceOnUse">
<stop stop-color="#D47150"/>
<stop offset="1" stop-color="#FFB854"/>
</linearGradient>
</defs>
</svg>
